<?xml version="1.0" encoding="UTF-8"?>
<svg version="1.1" viewBox="0 0 24 24" xmlns="http://www.w3.org/2000/svg" xmlns:cc="http://creativecommons.org/ns#" xmlns:dc="http://purl.org/dc/elements/1.1/" xmlns:rdf="http://www.w3.org/1999/02/22-rdf-syntax-ns#">
 <metadata>
  <rdf:RDF>
   <cc:Work rdf:about="">
    <dc:format>image/svg+xml</dc:format>
    <dc:type rdf:resource="http://purl.org/dc/dcmitype/StillImage"/>
    <dc:title/>
   </cc:Work>
  </rdf:RDF>
 </metadata>
 <g stroke-width="2">
  <path d="m10 10h4v4h-4v-4z" fill="#59f"/>
  <path d="m12 12h2v2h-2v-2zm0-8c-3.7752-0.073325-7.3005 2.8879-7.8799 6.6191-0.72028 3.6922 1.5667 7.6625 5.1228 8.8907 3.5059 1.3641 7.8189-0.18237 9.6586-3.4639 0.68207-1.1922 1.2043-2.7691 1.0306-4.0459h-3.9321c0.07187 2.3253-2.2066 4.3307-4.5032 3.9682-2.3162-0.22101-4.0181-2.7342-3.3702-4.9666 0.51074-2.2694 3.2179-3.643 5.3511-2.7184 0.71186 0.071813 1.2687 1.3745 1.7824 0.45667 0.79871-0.79871 1.5974-1.5974 2.3961-2.3961-1.478-1.4897-3.5578-2.3515-5.6562-2.3438zm5.6562 2.3438 0.14453 0.14844zm0.51562 0.56641 0.11523 0.14453zm0.11523 0.14453 0.14426 0.18909 2.72e-4 3.675e-4 -0.14425-0.18909zm0.14453 0.18945 0.13672 0.19141zm0.14062 0.19531 0.12109 0.18164zm0.25781 0.39648 0.12093 0.20479 1.63e-4 2.854e-4 -0.12092-0.2048zm0.12109 0.20508 0.0957 0.17188zm0.23047 0.4375 0.09375 0.19727zm0.09375 0.19727 0.08008 0.18164zm0.35547 0.92969 0.05664 0.18359zm0.05664 0.18359c0.10918 0.40855 0.05707 0.20438 0 0zm0.17578 0.74219 0.03125 0.17578zm0.03516 0.20312 0.02539 0.16602zm0.08203 0.7207 0.01172 0.20703zm0.01172 0.20703 0.0059 0.19531zm-19.992-11.662v4h4v2h-4v2h10v-8h-2v6h-2v-6h-6zm12 0v8h2v-8h-2zm4 0v10h8v-2h-6v-2h6v-6h-4v4h-2v-4h-2zm-16 10v2h8v-2h-8zm16 2v2h8v-2h-8zm-16 2v2h6v2h-6v6h4v-4h2v4h2v-10h-8zm10 2v8h2v-8h-2zm4 0v8h2v-6h2v6h6v-4h-4v-2h4v-2h-10z"/>
 </g>
</svg>
