<?xml version="1.0" encoding="UTF-8"?>
<svg xmlns="http://www.w3.org/2000/svg" xmlns:xlink="http://www.w3.org/1999/xlink" width="800pt" height="800pt" viewBox="0 0 800 800" version="1.1">
<g id="surface6">
<style>
path {
    stroke:rgb(0%,0%,0%);
}
@media (prefers-color-scheme: dark) {
    path {
        stroke:rgb(100%,100%,100%);
    }
}
</style>
<path style="fill:none;stroke-width:1.6;stroke-linecap:square;stroke-linejoin:miter;stroke-opacity:1;stroke-miterlimit:3.25;" d="M 850 405 L 849.976562 401.21875 L 849.910156 397.441406 L 849.800781 393.664062 L 849.648438 389.886719 L 849.449219 386.113281 L 849.207031 382.339844 L 848.921875 378.570312 L 848.59375 374.808594 L 848.21875 371.046875 L 847.800781 367.292969 L 847.339844 363.542969 L 846.835938 359.796875 L 846.289062 356.0625 L 845.695312 352.332031 L 844.382812 344.894531 L 843.664062 341.1875 L 842.898438 337.488281 L 841.242188 330.125 L 840.351562 326.460938 L 839.417969 322.804688 L 837.421875 315.53125 L 836.359375 311.914062 L 835.257812 308.308594 L 832.929688 301.140625 L 827.777344 286.988281 L 826.386719 283.492188 L 824.957031 280.011719 L 821.980469 273.109375 L 815.554688 259.527344 L 813.851562 256.183594 L 812.113281 252.859375 L 808.515625 246.28125 L 800.886719 233.390625 L 798.886719 230.230469 L 796.855469 227.09375 L 792.679688 220.894531 L 783.925781 208.8125 L 781.652344 205.863281 L 779.347656 202.9375 L 774.640625 197.175781 L 764.855469 186.007812 L 762.117188 183.0625 L 759.347656 180.15625 L 753.703125 174.453125 L 742.027344 163.507812 L 739.03125 160.867188 L 736.003906 158.269531 L 729.863281 153.191406 L 717.242188 143.527344 L 714.019531 141.21875 L 710.773438 138.953125 L 704.207031 134.546875 L 690.800781 126.257812 L 687.394531 124.296875 L 683.96875 122.382812 L 677.058594 118.683594 L 663.027344 111.839844 L 659.480469 110.246094 L 655.917969 108.695312 L 648.75 105.738281 L 645.144531 104.328125 L 641.53125 102.964844 L 634.265625 100.382812 L 630.617188 99.164062 L 626.960938 97.992188 L 619.621094 95.789062 L 615.9375 94.757812 L 612.25 93.777344 L 604.855469 91.953125 L 601.152344 91.117188 L 597.445312 90.324219 L 593.734375 89.582031 L 590.023438 88.886719 L 586.308594 88.238281 L 582.589844 87.640625 L 578.875 87.089844 L 575.160156 86.585938 L 571.441406 86.128906 L 567.730469 85.71875 L 564.019531 85.359375 L 560.308594 85.042969 L 556.605469 84.777344 L 552.90625 84.558594 L 549.210938 84.386719 L 545.519531 84.261719 L 542.082031 84.183594 L 538.648438 84.152344 L 535.222656 84.15625 L 531.800781 84.203125 L 528.390625 84.292969 L 524.988281 84.417969 L 521.59375 84.585938 L 518.207031 84.792969 L 514.832031 85.042969 L 511.46875 85.328125 L 508.113281 85.652344 L 504.773438 86.019531 L 501.441406 86.421875 L 498.125 86.867188 L 494.820312 87.347656 L 491.527344 87.867188 L 488.25 88.425781 L 484.988281 89.019531 L 478.507812 90.324219 L 475.289062 91.03125 L 472.089844 91.777344 L 465.742188 93.375 L 462.59375 94.230469 L 459.464844 95.117188 L 453.261719 97.003906 L 441.101562 101.191406 L 438.113281 102.324219 L 435.148438 103.488281 L 429.285156 105.917969 L 426.390625 107.179688 L 423.515625 108.476562 L 417.839844 111.160156 L 415.042969 112.550781 L 412.269531 113.96875 L 406.796875 116.898438 L 396.175781 123.105469 L 393.589844 124.726562 L 391.03125 126.375 L 386 129.757812 L 376.292969 136.824219 L 373.941406 138.65625 L 371.621094 140.507812 L 367.074219 144.285156 L 358.363281 152.105469 L 356.304688 154.074219 L 354.28125 156.0625 L 350.328125 160.09375 L 342.8125 168.371094 L 341.015625 170.484375 L 339.253906 172.609375 L 335.828125 176.910156 L 329.382812 185.679688 L 327.859375 187.90625 L 326.367188 190.140625 L 323.488281 194.652344 L 322.101562 196.921875 L 320.75 199.199219 L 318.152344 203.789062 L 316.90625 206.097656 L 315.695312 208.414062 L 313.378906 213.066406 L 309.171875 222.453125 L 308.210938 224.8125 L 307.28125 227.175781 L 305.535156 231.914062 L 304.714844 234.285156 L 303.929688 236.664062 L 302.46875 241.417969 L 301.789062 243.796875 L 301.144531 246.179688 L 300.539062 248.558594 L 299.964844 250.9375 L 299.429688 253.316406 L 298.929688 255.691406 L 298.03125 260.4375 L 297.636719 262.804688 L 297.273438 265.171875 L 296.949219 267.53125 L 296.65625 269.890625 L 296.398438 272.242188 L 296.175781 274.585938 L 295.988281 276.925781 L 295.832031 279.261719 L 295.714844 281.589844 L 295.628906 283.910156 L 295.574219 286.222656 L 295.558594 288.523438 L 295.570312 290.820312 L 295.621094 293.105469 L 295.699219 295.382812 L 295.816406 297.648438 L 295.976562 300.097656 L 296.175781 302.53125 L 296.410156 304.953125 L 296.6875 307.359375 L 296.996094 309.75 L 297.347656 312.128906 L 297.734375 314.488281 L 298.15625 316.835938 L 298.613281 319.164062 L 299.109375 321.472656 L 299.640625 323.769531 L 300.203125 326.042969 L 300.804688 328.300781 L 301.441406 330.535156 L 302.8125 334.953125 L 303.550781 337.128906 L 304.320312 339.285156 L 305.957031 343.527344 L 306.824219 345.617188 L 307.722656 347.683594 L 309.609375 351.742188 L 310.601562 353.734375 L 311.621094 355.703125 L 313.746094 359.5625 L 318.339844 366.96875 L 319.554688 368.75 L 320.796875 370.503906 L 323.355469 373.925781 L 324.671875 375.59375 L 326.015625 377.230469 L 328.765625 380.417969 L 330.175781 381.964844 L 331.609375 383.480469 L 334.535156 386.421875 L 340.632812 391.914062 L 342.203125 393.207031 L 343.792969 394.464844 L 347.019531 396.882812 L 348.65625 398.042969 L 350.3125 399.167969 L 353.660156 401.3125 L 355.355469 402.332031 L 357.066406 403.320312 L 360.519531 405.183594 L 362.265625 406.066406 L 364.019531 406.910156 L 367.558594 408.496094 L 369.222656 409.183594 L 370.894531 409.84375 L 372.574219 410.46875 L 374.257812 411.066406 L 375.945312 411.628906 L 377.640625 412.164062 L 381.046875 413.132812 L 382.753906 413.570312 L 384.464844 413.976562 L 386.179688 414.351562 L 387.894531 414.691406 L 389.613281 415.003906 L 391.332031 415.28125 L 393.050781 415.527344 L 394.769531 415.742188 L 396.492188 415.925781 L 398.210938 416.078125 L 399.929688 416.199219 L 401.644531 416.285156 L 403.359375 416.34375 L 405.070312 416.367188 L 406.777344 416.363281 L 408.480469 416.324219 L 410.183594 416.253906 L 411.878906 416.152344 L 413.566406 416.019531 L 415.253906 415.859375 L 416.929688 415.664062 L 418.601562 415.4375 L 420.269531 415.183594 L 421.925781 414.894531 L 423.574219 414.578125 L 425.214844 414.230469 L 426.847656 413.851562 L 428.46875 413.445312 L 430.082031 413.003906 L 431.683594 412.539062 L 434.851562 411.511719 L 436.421875 410.957031 L 437.976562 410.371094 L 441.046875 409.113281 L 442.5625 408.4375 L 444.066406 407.738281 L 447.023438 406.253906 L 448.480469 405.46875 L 449.921875 404.660156 L 452.753906 402.953125 L 454.144531 402.0625 L 455.519531 401.144531 L 458.210938 399.226562 L 459.527344 398.230469 L 460.828125 397.210938 L 463.367188 395.089844 L 468.199219 390.5625 L 469.445312 389.273438 L 470.671875 387.953125 L 473.035156 385.238281 L 474.179688 383.84375 L 475.292969 382.421875 L 477.4375 379.507812 L 478.464844 378.011719 L 479.460938 376.496094 L 481.367188 373.394531 L 482.273438 371.8125 L 483.148438 370.207031 L 484.804688 366.933594 L 485.585938 365.269531 L 486.332031 363.585938 L 487.046875 361.878906 L 487.726562 360.160156 L 488.375 358.417969 L 488.988281 356.664062 L 490.113281 353.097656 L 490.621094 351.292969 L 491.097656 349.476562 L 491.535156 347.640625 L 491.9375 345.792969 L 492.304688 343.929688 L 492.636719 342.058594 L 492.933594 340.171875 L 493.191406 338.273438 L 493.414062 336.367188 L 493.597656 334.445312 L 493.746094 332.519531 L 493.855469 330.582031 L 493.925781 328.632812 L 493.960938 326.679688 L 493.957031 324.71875 L 493.914062 322.75 L 493.835938 320.777344 L 493.71875 318.796875 L 493.558594 316.8125 L 493.363281 314.824219 L 493.128906 312.828125 L 492.859375 310.832031 L 492.546875 308.835938 L 492.195312 306.835938 L 491.804688 304.832031 L 491.375 302.832031 L 490.910156 300.828125 L 490.402344 298.828125 L 489.855469 296.828125 L 489.269531 294.832031 L 487.980469 290.84375 L 487.277344 288.855469 L 486.535156 286.871094 L 484.933594 282.917969 L 484.074219 280.949219 L 483.175781 278.988281 L 481.261719 275.089844 L 480.265625 273.191406 L 479.234375 271.300781 L 477.054688 267.546875 L 475.910156 265.683594 L 474.730469 263.835938 L 472.257812 260.171875 L 470.96875 258.359375 L 469.640625 256.5625 L 466.882812 253.007812 L 460.9375 246.09375 L 459.363281 244.40625 L 457.753906 242.738281 L 454.4375 239.457031 L 452.726562 237.847656 L 450.984375 236.257812 L 447.398438 233.140625 L 445.554688 231.613281 L 443.683594 230.109375 L 439.839844 227.171875 L 431.78125 221.585938 L 429.691406 220.253906 L 427.574219 218.949219 L 423.246094 216.417969 L 421.042969 215.195312 L 418.808594 214 L 414.261719 211.695312 L 411.945312 210.589844 L 409.605469 209.511719 L 404.847656 207.449219 L 402.429688 206.464844 L 399.988281 205.511719 L 395.035156 203.703125 L 392.523438 202.847656 L 389.988281 202.027344 L 384.855469 200.484375 L 382.257812 199.765625 L 379.636719 199.082031 L 374.339844 197.816406 L 371.660156 197.238281 L 368.964844 196.699219 L 366.25 196.191406 L 363.515625 195.726562 L 360.769531 195.292969 L 358.003906 194.902344 L 355.222656 194.542969 L 352.425781 194.226562 L 349.804688 193.964844 L 347.171875 193.738281 L 344.523438 193.542969 L 341.867188 193.382812 L 339.199219 193.253906 L 336.519531 193.164062 L 333.832031 193.105469 L 331.132812 193.082031 L 328.425781 193.09375 L 325.710938 193.140625 L 322.988281 193.222656 L 320.257812 193.339844 L 317.519531 193.492188 L 314.773438 193.679688 L 312.023438 193.90625 L 309.265625 194.164062 L 306.503906 194.460938 L 303.738281 194.792969 L 300.96875 195.164062 L 298.195312 195.566406 L 295.417969 196.007812 L 292.636719 196.488281 L 287.074219 197.554688 L 284.289062 198.140625 L 281.503906 198.765625 L 275.933594 200.125 L 273.152344 200.863281 L 270.371094 201.632812 L 264.8125 203.289062 L 262.039062 204.171875 L 259.269531 205.09375 L 253.742188 207.046875 L 250.984375 208.078125 L 248.234375 209.144531 L 242.75 211.394531 L 240.019531 212.574219 L 237.296875 213.789062 L 231.875 216.332031 L 221.148438 221.851562 L 218.496094 223.324219 L 215.851562 224.832031 L 210.605469 227.957031 L 200.273438 234.628906 L 197.726562 236.386719 L 195.199219 238.179688 L 190.1875 241.867188 L 180.378906 249.660156 L 177.773438 251.863281 L 175.1875 254.109375 L 170.09375 258.714844 L 160.210938 268.386719 L 157.804688 270.898438 L 155.429688 273.449219 L 150.765625 278.65625 L 141.796875 289.496094 L 139.632812 292.292969 L 137.5 295.121094 L 133.335938 300.882812 L 131.304688 303.8125 L 129.308594 306.773438 L 125.421875 312.789062 L 123.53125 315.847656 L 121.675781 318.929688 L 118.082031 325.191406 L 111.347656 338.054688 L 109.761719 341.335938 L 108.214844 344.648438 L 105.246094 351.34375 L 103.824219 354.730469 L 102.445312 358.140625 L 99.808594 365.03125 L 98.554688 368.507812 L 97.34375 372.007812 L 95.054688 379.074219 L 93.976562 382.636719 L 92.941406 386.21875 L 91.007812 393.441406 L 90.109375 397.078125 L 89.257812 400.734375 L 88.449219 404.40625 L 87.691406 408.09375 L 86.976562 411.796875 L 86.308594 415.515625 L 85.691406 419.246094 L 85.117188 422.988281 L 84.59375 426.746094 L 84.113281 430.519531 L 83.6875 434.300781 L 83.304688 438.089844 L 82.972656 441.894531 L 82.6875 445.707031 L 82.453125 449.527344 L 82.265625 453.355469 L 82.136719 456.9375 L 82.050781 460.523438 L 82.003906 464.117188 L 82.003906 467.714844 L 82.046875 471.320312 L 82.132812 474.925781 L 82.261719 478.535156 L 82.433594 482.148438 L 82.648438 485.761719 L 82.910156 489.378906 L 83.210938 492.996094 L 83.558594 496.617188 L 83.949219 500.234375 L 84.382812 503.851562 L 84.859375 507.46875 L 85.378906 511.085938 L 85.945312 514.699219 L 86.554688 518.308594 L 87.207031 521.917969 L 87.902344 525.519531 L 88.640625 529.117188 L 89.425781 532.714844 L 91.121094 539.882812 L 92.035156 543.460938 L 92.992188 547.03125 L 95.035156 554.144531 L 99.640625 568.261719 L 100.898438 571.765625 L 102.199219 575.257812 L 104.929688 582.207031 L 106.355469 585.664062 L 107.828125 589.101562 L 110.890625 595.941406 L 112.488281 599.339844 L 114.121094 602.71875 L 117.519531 609.433594 L 124.796875 622.644531 L 126.714844 625.902344 L 128.675781 629.140625 L 132.710938 635.550781 L 141.246094 648.113281 L 143.476562 651.195312 L 145.742188 654.253906 L 150.386719 660.300781 L 160.109375 672.085938 L 162.578125 674.910156 L 165.082031 677.707031 L 170.1875 683.21875 L 180.785156 693.910156 L 183.511719 696.511719 L 186.269531 699.085938 L 191.875 704.136719 L 203.441406 713.871094 L 206.402344 716.226562 L 209.390625 718.546875 L 215.453125 723.09375 L 227.882812 731.777344 L 231.054688 733.863281 L 234.246094 735.914062 L 240.707031 739.90625 L 253.894531 747.464844 L 257.242188 749.261719 L 260.613281 751.019531 L 267.414062 754.429688 L 270.839844 756.074219 L 274.289062 757.683594 L 281.238281 760.789062 L 284.734375 762.28125 L 288.253906 763.734375 L 295.332031 766.527344 L 309.667969 771.632812 L 313.285156 772.808594 L 316.914062 773.945312 L 324.210938 776.09375 L 327.871094 777.109375 L 331.546875 778.082031 L 338.925781 779.90625 L 342.628906 780.753906 L 346.335938 781.5625 L 350.054688 782.332031 L 353.78125 783.058594 L 357.511719 783.742188 L 361.25 784.382812 L 368.742188 785.542969 L 372.816406 786.101562 L 376.890625 786.613281 L 380.972656 787.074219 L 385.058594 787.484375 L 389.144531 787.847656 L 393.234375 788.160156 L 397.324219 788.421875 L 401.414062 788.636719 L 405.503906 788.800781 L 409.59375 788.917969 L 413.679688 788.984375 L 417.765625 789 L 421.847656 788.96875 L 425.925781 788.886719 L 430 788.753906 L 434.070312 788.578125 L 438.136719 788.347656 L 442.191406 788.070312 L 446.242188 787.746094 L 450.285156 787.371094 L 454.320312 786.949219 L 458.347656 786.476562 L 462.363281 785.957031 L 466.367188 785.390625 L 470.363281 784.777344 L 474.347656 784.113281 L 478.316406 783.402344 L 482.273438 782.644531 L 486.21875 781.839844 L 490.148438 780.992188 L 497.960938 779.148438 L 501.847656 778.160156 L 505.710938 777.121094 L 513.390625 774.914062 L 517.203125 773.742188 L 520.996094 772.523438 L 528.523438 769.957031 L 532.253906 768.605469 L 535.964844 767.214844 L 543.3125 764.296875 L 557.730469 757.957031 L 561.269531 756.269531 L 564.785156 754.539062 L 571.734375 750.957031 L 585.289062 743.324219 L 588.605469 741.320312 L 591.890625 739.28125 L 598.367188 735.085938 L 610.929688 726.269531 L 613.78125 724.132812 L 616.605469 721.96875 L 622.160156 717.550781 L 632.898438 708.378906 L 635.503906 706.019531 L 638.074219 703.632812 L 643.121094 698.785156 L 652.804688 688.796875 L 655.136719 686.242188 L 657.4375 683.664062 L 661.933594 678.441406 L 670.492188 667.75 L 672.539062 665.027344 L 674.550781 662.289062 L 678.460938 656.753906 L 685.832031 645.484375 L 687.582031 642.625 L 689.289062 639.753906 L 692.59375 633.972656 L 694.1875 631.058594 L 695.742188 628.136719 L 698.734375 622.25 L 700.171875 619.292969 L 701.570312 616.320312 L 704.246094 610.351562 L 709.125 598.3125 L 710.246094 595.285156 L 711.328125 592.25 L 713.367188 586.164062 L 714.328125 583.113281 L 715.246094 580.058594 L 716.964844 573.9375 L 717.765625 570.875 L 718.527344 567.808594 L 719.246094 564.738281 L 719.925781 561.671875 L 720.566406 558.601562 L 721.167969 555.53125 L 722.246094 549.394531 L 722.765625 546.070312 L 723.238281 542.746094 L 723.664062 539.429688 L 724.046875 536.113281 L 724.378906 532.804688 L 724.667969 529.5 L 724.910156 526.199219 L 725.105469 522.90625 L 725.253906 519.617188 L 725.359375 516.339844 L 725.417969 513.070312 L 725.433594 509.808594 L 725.402344 506.554688 L 725.324219 503.3125 L 725.207031 500.082031 L 725.039062 496.863281 L 724.832031 493.65625 L 724.582031 490.460938 L 724.285156 487.28125 L 723.945312 484.113281 L 723.5625 480.957031 L 723.140625 477.820312 L 722.671875 474.699219 L 722.164062 471.589844 L 721.609375 468.5 L 721.019531 465.429688 L 720.382812 462.375 L 719.710938 459.339844 L 718.996094 456.324219 L 718.238281 453.324219 L 716.609375 447.394531 L 715.734375 444.457031 L 714.824219 441.546875 L 712.882812 435.785156 L 711.859375 432.941406 L 710.792969 430.121094 L 708.558594 424.554688 L 707.386719 421.808594 L 706.179688 419.089844 L 703.660156 413.730469 L 698.21875 403.339844 L 696.777344 400.816406 L 695.304688 398.320312 L 692.265625 393.417969 L 690.703125 391.011719 L 689.105469 388.636719 L 685.832031 383.984375 L 684.152344 381.703125 L 682.445312 379.457031 L 678.953125 375.066406 L 671.660156 366.6875 L 669.8125 364.714844 L 667.941406 362.777344 L 664.136719 359.003906 L 662.203125 357.167969 L 660.25 355.371094 L 656.289062 351.875 L 654.277344 350.183594 L 652.253906 348.527344 L 648.148438 345.320312 L 639.761719 339.34375 L 637.628906 337.945312 L 635.484375 336.582031 L 631.15625 333.964844 L 628.976562 332.714844 L 626.785156 331.5 L 622.375 329.1875 L 620.160156 328.085938 L 617.933594 327.023438 L 613.460938 325.015625 L 611.214844 324.066406 L 608.960938 323.15625 L 604.445312 321.453125 L 602.179688 320.660156 L 599.910156 319.90625 L 597.640625 319.1875 L 595.371094 318.507812 L 593.097656 317.867188 L 590.820312 317.265625 L 586.273438 316.171875 L 584.003906 315.683594 L 581.730469 315.234375 L 579.464844 314.820312 L 577.199219 314.445312 L 574.9375 314.109375 L 572.679688 313.8125 L 570.425781 313.550781 L 568.179688 313.324219 L 565.9375 313.136719 L 563.703125 312.988281 L 561.472656 312.875 L 559.253906 312.796875 L 557.039062 312.757812 L 554.835938 312.753906 L 552.644531 312.789062 L 550.460938 312.859375 L 548.285156 312.960938 L 546.125 313.105469 L 543.972656 313.28125 L 541.835938 313.492188 L 539.710938 313.738281 L 537.597656 314.019531 L 535.5 314.335938 L 533.414062 314.683594 L 531.484375 315.042969 L 529.566406 315.429688 L 527.664062 315.84375 L 525.777344 316.289062 L 523.902344 316.761719 L 522.042969 317.261719 L 518.375 318.347656 L 516.5625 318.933594 L 514.769531 319.546875 L 511.230469 320.851562 L 509.492188 321.546875 L 507.765625 322.265625 L 504.378906 323.78125 L 502.710938 324.578125 L 501.066406 325.398438 L 497.832031 327.113281 L 496.25 328.007812 L 494.6875 328.925781 L 491.625 330.832031 L 490.128906 331.820312 L 488.652344 332.828125 L 485.773438 334.914062 L 480.296875 339.339844 L 478.988281 340.496094 L 477.703125 341.671875 L 475.214844 344.078125 L 474.007812 345.3125 L 472.828125 346.5625 L 470.550781 349.113281 L 469.449219 350.414062 L 468.375 351.730469 L 466.3125 354.414062 L 462.523438 359.957031 L 461.644531 361.375 L 460.796875 362.808594 L 459.1875 365.710938 L 458.429688 367.179688 L 457.695312 368.660156 L 456.324219 371.652344 L 455.683594 373.164062 L 455.074219 374.683594 L 454.492188 376.210938 L 453.941406 377.75 L 453.421875 379.292969 L 452.933594 380.847656 L 452.046875 383.976562 L 451.617188 385.679688 L 451.222656 387.394531 L 450.867188 389.113281 L 450.550781 390.835938 L 450.265625 392.566406 L 450.019531 394.300781 L 449.8125 396.039062 L 449.640625 397.777344 L 449.503906 399.519531 L 449.40625 401.265625 L 449.347656 403.011719 L 449.324219 404.757812 L 449.335938 406.503906 L 449.386719 408.25 L 449.472656 409.996094 L 449.597656 411.738281 L 449.761719 413.480469 L 449.960938 415.21875 L 450.195312 416.953125 L 450.46875 418.683594 L 450.777344 420.410156 L 451.121094 422.128906 L 451.503906 423.84375 L 451.921875 425.554688 L 452.378906 427.253906 L 452.871094 428.949219 L 453.398438 430.632812 L 453.960938 432.308594 L 454.5625 433.976562 L 455.195312 435.632812 L 456.574219 438.914062 L 457.316406 440.539062 L 458.09375 442.148438 L 459.75 445.332031 L 460.628906 446.902344 L 461.542969 448.457031 L 463.476562 451.523438 L 464.492188 453.035156 L 465.539062 454.527344 L 467.738281 457.457031 L 472.515625 463.097656 L 473.789062 464.457031 L 475.09375 465.796875 L 477.792969 468.410156 L 479.1875 469.683594 L 480.609375 470.933594 L 483.542969 473.363281 L 485.054688 474.539062 L 486.589844 475.695312 L 489.75 477.925781 L 496.378906 482.066406 L 497.988281 482.96875 L 499.613281 483.847656 L 502.929688 485.53125 L 504.621094 486.332031 L 506.328125 487.109375 L 509.804688 488.582031 L 511.574219 489.277344 L 513.355469 489.949219 L 516.980469 491.203125 L 518.816406 491.789062 L 520.671875 492.347656 L 524.425781 493.375 L 526.328125 493.847656 L 528.246094 494.285156 L 530.175781 494.699219 L 532.121094 495.078125 L 534.078125 495.429688 L 536.050781 495.753906 L 538.035156 496.042969 L 540.03125 496.300781 L 542.039062 496.53125 L 544.058594 496.726562 L 546.089844 496.894531 L 548.128906 497.027344 L 550.179688 497.132812 L 552.242188 497.203125 L 554.3125 497.242188 L 556.390625 497.246094 L 558.476562 497.21875 L 560.566406 497.160156 L 562.667969 497.070312 L 564.777344 496.945312 L 566.890625 496.789062 L 569.007812 496.597656 L 571.132812 496.375 L 573.257812 496.117188 L 575.390625 495.824219 L 577.527344 495.5 L 579.667969 495.144531 L 581.808594 494.75 L 583.953125 494.324219 L 586.097656 493.867188 L 590.390625 492.847656 L 592.539062 492.285156 L 594.683594 491.691406 L 598.972656 490.398438 L 601.117188 489.699219 L 603.257812 488.96875 L 607.527344 487.402344 L 609.65625 486.566406 L 611.777344 485.699219 L 616.011719 483.859375 L 624.402344 479.773438 L 626.652344 478.574219 L 628.894531 477.332031 L 633.34375 474.734375 L 635.550781 473.378906 L 637.746094 471.980469 L 642.09375 469.070312 L 644.242188 467.554688 L 646.378906 466.003906 L 650.605469 462.785156 L 658.84375 455.894531 L 660.855469 454.078125 L 662.84375 452.226562 L 666.765625 448.414062 L 668.691406 446.453125 L 670.597656 444.457031 L 674.332031 440.355469 L 676.167969 438.253906 L 677.972656 436.117188 L 681.511719 431.742188 L 688.261719 422.59375 L 689.878906 420.226562 L 691.464844 417.824219 L 694.546875 412.933594 L 696.042969 410.441406 L 697.507812 407.917969 L 700.335938 402.789062 L 701.703125 400.179688 L 703.035156 397.542969 L 705.597656 392.183594 L 710.300781 381.152344 L 711.382812 378.328125 L 712.429688 375.484375 L 714.414062 369.722656 L 715.34375 366.804688 L 716.238281 363.867188 L 717.910156 357.925781 L 718.683594 354.925781 L 719.421875 351.902344 L 720.113281 348.863281 L 720.769531 345.800781 L 721.378906 342.722656 L 721.949219 339.628906 L 722.476562 336.515625 L 722.964844 333.386719 L 723.398438 330.296875 L 723.792969 327.191406 L 724.144531 324.074219 L 724.457031 320.945312 L 724.722656 317.800781 L 724.949219 314.640625 L 725.132812 311.472656 L 725.269531 308.292969 L 725.367188 305.101562 L 725.421875 301.898438 L 725.429688 298.6875 L 725.398438 295.46875 L 725.320312 292.242188 L 725.195312 289.003906 L 725.03125 285.761719 L 724.820312 282.511719 L 724.5625 279.253906 L 724.261719 275.996094 L 723.917969 272.730469 L 723.527344 269.457031 L 723.09375 266.1875 L 722.613281 262.910156 L 722.085938 259.632812 L 721.515625 256.351562 L 720.898438 253.070312 L 720.234375 249.789062 L 718.773438 243.230469 L 717.976562 239.949219 L 717.128906 236.675781 L 715.304688 230.132812 L 714.320312 226.867188 L 713.292969 223.609375 L 711.097656 217.105469 L 709.933594 213.863281 L 708.722656 210.628906 L 706.167969 204.183594 L 704.820312 200.972656 L 703.425781 197.777344 L 700.507812 191.410156 L 694.128906 178.828125 L 692.421875 175.714844 L 690.671875 172.621094 L 687.035156 166.476562 L 679.246094 154.390625 L 677.191406 151.417969 L 675.09375 148.464844 L 670.769531 142.617188 L 661.621094 131.191406 L 659.394531 128.582031 L 657.132812 125.992188 L 652.5 120.878906 L 642.828125 110.929688 L 640.324219 108.503906 L 637.789062 106.101562 L 632.621094 101.375 L 621.902344 92.242188 L 619.144531 90.027344 L 616.359375 87.839844 L 610.691406 83.554688 L 599.011719 75.34375 L 596.019531 73.371094 L 593.003906 71.425781 L 586.886719 67.632812 L 574.339844 60.441406 L 571.140625 58.730469 L 567.917969 57.050781 L 561.402344 53.796875 L 558.109375 52.222656 L 554.792969 50.683594 L 548.097656 47.714844 L 544.71875 46.285156 L 541.320312 44.890625 L 534.460938 42.214844 L 520.515625 37.320312 L 516.984375 36.191406 L 513.4375 35.101562 L 506.292969 33.039062 L 502.699219 32.066406 L 499.089844 31.132812 L 491.832031 29.390625 L 488.183594 28.578125 L 484.519531 27.804688 L 480.84375 27.074219 L 477.160156 26.386719 L 473.460938 25.734375 L 469.753906 25.128906 L 466.035156 24.5625 L 462.308594 24.035156 L 458.257812 23.511719 L 454.195312 23.039062 L 450.125 22.613281 L 446.046875 22.238281 L 441.960938 21.914062 L 437.867188 21.636719 L 433.765625 21.410156 L 429.660156 21.230469 L 425.550781 21.105469 L 421.4375 21.027344 L 417.316406 21 L 413.195312 21.023438 L 409.074219 21.09375 L 404.945312 21.21875 L 400.820312 21.390625 L 396.695312 21.613281 L 392.570312 21.886719 L 388.445312 22.210938 L 384.324219 22.585938 L 380.203125 23.011719 L 376.089844 23.484375 L 371.976562 24.007812 L 367.871094 24.582031 L 363.769531 25.207031 L 359.675781 25.882812 L 355.585938 26.609375 L 351.503906 27.382812 L 347.433594 28.207031 L 343.371094 29.078125 L 339.316406 30.003906 L 331.242188 31.996094 L 327.222656 33.070312 L 323.214844 34.1875 L 315.238281 36.574219 L 311.273438 37.839844 L 307.324219 39.15625 L 299.46875 41.925781 L 295.570312 43.382812 L 291.6875 44.890625 L 283.976562 48.039062 L 268.800781 54.898438 L 265.0625 56.730469 L 261.34375 58.605469 L 253.984375 62.488281 L 239.566406 70.78125 L 236.03125 72.964844 L 232.519531 75.191406 L 225.589844 79.765625 L 212.085938 89.40625 L 209.007812 91.75 L 205.957031 94.125 L 199.941406 98.980469 L 188.269531 109.085938 L 185.429688 111.691406 L 182.621094 114.328125 L 177.101562 119.695312 L 166.457031 130.785156 L 163.882812 133.628906 L 161.339844 136.5 L 156.363281 142.324219 L 146.84375 154.289062 L 144.554688 157.339844 L 142.304688 160.417969 L 137.914062 166.644531 L 129.601562 179.363281 L 127.621094 182.597656 L 125.679688 185.847656 L 121.914062 192.414062 L 120.09375 195.722656 L 118.3125 199.050781 L 114.875 205.761719 L 113.214844 209.140625 L 111.601562 212.535156 L 108.492188 219.375 L 102.78125 233.21875 L 101.460938 236.710938 L 100.179688 240.21875 L 97.75 247.261719 L 96.601562 250.796875 L 95.492188 254.34375 L 93.410156 261.464844 L 92.433594 265.035156 L 91.5 268.617188 L 89.761719 275.796875 L 88.960938 279.394531 L 88.199219 282.996094 L 86.8125 290.21875 L 86.199219 293.761719 L 85.625 297.308594 L 85.09375 300.859375 L 84.605469 304.410156 L 84.15625 307.964844 L 83.753906 311.519531 L 83.390625 315.070312 L 83.070312 318.625 L 82.792969 322.175781 L 82.554688 325.730469 L 82.359375 329.277344 L 82.207031 332.824219 L 82.097656 336.371094 L 82.027344 339.910156 L 82 343.445312 L 82.015625 346.980469 L 82.070312 350.507812 L 82.167969 354.027344 L 82.304688 357.542969 L 82.484375 361.054688 L 82.707031 364.554688 L 82.96875 368.050781 L 83.269531 371.539062 L 83.613281 375.015625 L 83.996094 378.484375 L 84.421875 381.945312 L 84.886719 385.394531 L 85.390625 388.832031 L 85.933594 392.261719 L 86.519531 395.679688 L 87.804688 402.476562 L 88.507812 405.855469 L 89.246094 409.21875 L 90.84375 415.910156 L 91.703125 419.230469 L 92.597656 422.539062 L 94.5 429.105469 L 95.503906 432.363281 L 96.550781 435.605469 L 98.75 442.035156 L 103.578125 454.671875 L 104.875 457.777344 L 106.203125 460.867188 L 108.96875 466.980469 L 114.902344 478.941406 L 116.46875 481.875 L 118.066406 484.78125 L 121.355469 490.527344 L 128.308594 501.714844 L 130.277344 504.675781 L 132.28125 507.605469 L 136.386719 513.367188 L 144.988281 524.5 L 147.21875 527.199219 L 149.476562 529.859375 L 154.085938 535.078125 L 163.640625 545.085938 L 166.09375 547.492188 L 168.574219 549.863281 L 173.613281 554.492188 L 183.972656 563.285156 L 186.617188 565.386719 L 189.285156 567.445312 L 194.675781 571.445312 L 205.6875 578.957031 L 208.484375 580.734375 L 211.296875 582.464844 L 216.964844 585.808594 L 219.820312 587.417969 L 222.691406 588.984375 L 228.46875 591.988281 L 231.375 593.425781 L 234.292969 594.824219 L 240.15625 597.488281 L 251.988281 602.304688 L 254.964844 603.398438 L 257.945312 604.453125 L 263.921875 606.429688 L 266.917969 607.355469 L 269.914062 608.234375 L 275.914062 609.867188 L 278.917969 610.621094 L 281.921875 611.332031 L 284.925781 611.996094 L 287.929688 612.621094 L 290.929688 613.199219 L 293.929688 613.738281 L 296.925781 614.234375 L 299.917969 614.6875 L 302.707031 615.074219 L 305.492188 615.421875 L 308.273438 615.730469 L 311.050781 616.007812 L 313.820312 616.246094 L 316.585938 616.449219 L 319.34375 616.613281 L 322.097656 616.742188 L 324.839844 616.839844 L 327.574219 616.894531 L 330.304688 616.917969 L 333.019531 616.90625 L 335.730469 616.859375 L 338.429688 616.777344 L 341.117188 616.660156 L 343.796875 616.507812 L 346.460938 616.320312 L 349.117188 616.097656 L 351.757812 615.84375 L 354.386719 615.554688 L 357.003906 615.234375 L 359.605469 614.878906 L 362.191406 614.488281 L 364.765625 614.066406 L 367.324219 613.613281 L 369.867188 613.125 L 372.394531 612.605469 L 374.902344 612.054688 L 377.394531 611.472656 L 379.871094 610.859375 L 384.769531 609.539062 L 387.191406 608.835938 L 389.59375 608.097656 L 394.339844 606.539062 L 396.683594 605.714844 L 399.007812 604.863281 L 403.589844 603.070312 L 405.847656 602.132812 L 408.082031 601.167969 L 412.488281 599.15625 L 421.015625 594.820312 L 423.089844 593.671875 L 425.136719 592.5 L 429.152344 590.082031 L 431.121094 588.839844 L 433.066406 587.570312 L 436.875 584.96875 L 438.738281 583.636719 L 440.574219 582.28125 L 444.164062 579.511719 L 451 573.726562 L 452.773438 572.109375 L 454.511719 570.46875 L 457.882812 567.128906 L 459.519531 565.429688 L 461.113281 563.710938 L 464.203125 560.222656 L 465.691406 558.453125 L 467.144531 556.664062 L 469.9375 553.042969 L 475.078125 545.628906 L 476.265625 543.742188 L 477.417969 541.847656 L 479.609375 538.019531 L 480.648438 536.089844 L 481.644531 534.152344 L 483.527344 530.253906 L 484.410156 528.292969 L 485.253906 526.324219 L 486.824219 522.371094 L 487.550781 520.386719 L 488.238281 518.398438 L 489.496094 514.414062 L 490.066406 512.417969 L 490.597656 510.417969 L 491.089844 508.417969 L 491.542969 506.417969 L 491.957031 504.417969 L 492.332031 502.421875 L 492.667969 500.421875 L 492.964844 498.425781 L 493.222656 496.433594 L 493.441406 494.445312 L 493.621094 492.460938 L 493.765625 490.476562 L 493.867188 488.503906 L 493.933594 486.53125 L 493.960938 484.566406 L 493.953125 482.609375 L 493.90625 480.660156 L 493.820312 478.71875 L 493.695312 476.789062 L 493.535156 474.863281 L 493.335938 472.953125 L 493.101562 471.050781 L 492.832031 469.15625 L 492.523438 467.277344 L 492.179688 465.410156 L 491.800781 463.554688 L 491.386719 461.714844 L 490.933594 459.886719 L 490.449219 458.074219 L 489.925781 456.277344 L 488.78125 452.726562 L 488.167969 451.011719 L 487.523438 449.308594 L 486.136719 445.960938 L 485.394531 444.3125 L 484.621094 442.683594 L 482.984375 439.484375 L 482.121094 437.914062 L 481.226562 436.363281 L 479.347656 433.328125 L 478.367188 431.84375 L 477.355469 430.378906 L 475.25 427.523438 L 474.15625 426.128906 L 473.039062 424.761719 L 470.71875 422.097656 L 469.519531 420.804688 L 468.296875 419.535156 L 465.773438 417.078125 L 464.476562 415.890625 L 463.15625 414.726562 L 460.449219 412.488281 L 454.773438 408.355469 L 453.300781 407.394531 L 451.8125 406.464844 L 448.777344 404.695312 L 447.230469 403.855469 L 445.667969 403.046875 L 442.492188 401.527344 L 440.878906 400.816406 L 439.253906 400.136719 L 437.609375 399.488281 L 435.953125 398.875 L 434.28125 398.292969 L 432.597656 397.746094 L 429.195312 396.75 L 427.476562 396.304688 L 425.746094 395.890625 L 424.003906 395.511719 L 422.253906 395.164062 L 420.492188 394.855469 L 418.722656 394.578125 L 416.949219 394.339844 L 415.164062 394.132812 L 413.371094 393.960938 L 411.574219 393.828125 L 409.773438 393.726562 L 407.964844 393.664062 L 406.152344 393.632812 L 404.332031 393.640625 L 402.511719 393.679688 L 400.691406 393.757812 L 398.988281 393.863281 L 397.285156 394 L 395.578125 394.167969 L 393.875 394.363281 L 392.167969 394.59375 L 390.464844 394.855469 L 388.761719 395.148438 L 387.058594 395.46875 L 385.359375 395.824219 L 383.660156 396.210938 L 381.964844 396.628906 L 380.273438 397.074219 L 378.585938 397.554688 L 376.902344 398.066406 L 373.550781 399.179688 L 371.886719 399.785156 L 370.222656 400.417969 L 366.925781 401.777344 L 365.285156 402.503906 L 363.652344 403.261719 L 360.417969 404.867188 L 358.816406 405.714844 L 357.222656 406.59375 L 354.070312 408.441406 L 347.902344 412.488281 L 346.394531 413.570312 L 344.898438 414.683594 L 341.949219 416.996094 L 340.5 418.195312 L 339.0625 419.425781 L 336.238281 421.960938 L 334.855469 423.273438 L 333.484375 424.609375 L 330.800781 427.367188 L 325.660156 433.195312 L 324.421875 434.71875 L 323.207031 436.265625 L 320.84375 439.433594 L 319.691406 441.054688 L 318.5625 442.699219 L 316.375 446.0625 L 315.316406 447.777344 L 314.28125 449.515625 L 312.28125 453.058594 L 308.589844 460.410156 L 307.65625 462.460938 L 306.757812 464.535156 L 305.058594 468.75 L 304.253906 470.894531 L 303.484375 473.058594 L 302.046875 477.449219 L 301.378906 479.675781 L 300.746094 481.921875 L 300.144531 484.191406 L 299.582031 486.472656 L 299.054688 488.777344 L 298.5625 491.097656 L 298.105469 493.4375 L 297.683594 495.792969 L 297.300781 498.164062 L 296.957031 500.550781 L 296.648438 502.953125 L 296.378906 505.367188 L 296.144531 507.800781 L 295.949219 510.242188 L 295.792969 512.699219 L 295.679688 515.167969 L 295.601562 517.648438 L 295.5625 520.140625 L 295.5625 522.644531 L 295.601562 525.15625 L 295.683594 527.679688 L 295.804688 530.210938 L 295.964844 532.75 L 296.164062 535.296875 L 296.40625 537.847656 L 296.691406 540.410156 L 297.015625 542.976562 L 297.378906 545.546875 L 297.785156 548.121094 L 298.234375 550.703125 L 298.722656 553.285156 L 299.253906 555.871094 L 299.828125 558.457031 L 300.441406 561.046875 L 301.796875 566.226562 L 302.535156 568.816406 L 303.316406 571.40625 L 305.007812 576.578125 L 305.917969 579.160156 L 306.867188 581.738281 L 308.898438 586.878906 L 309.972656 589.445312 L 311.09375 592.003906 L 313.457031 597.097656 L 314.703125 599.632812 L 315.992188 602.160156 L 318.691406 607.1875 L 324.59375 617.109375 L 326.0625 619.394531 L 327.570312 621.667969 L 330.695312 626.183594 L 337.363281 635.042969 L 339.117188 637.222656 L 340.90625 639.382812 L 344.585938 643.660156 L 352.355469 652 L 354.378906 654.039062 L 356.4375 656.054688 L 360.652344 660.03125 L 369.464844 667.730469 L 371.75 669.597656 L 374.0625 671.441406 L 378.777344 675.058594 L 388.570312 681.996094 L 391.089844 683.664062 L 393.640625 685.304688 L 398.820312 688.507812 L 401.453125 690.070312 L 404.113281 691.601562 L 409.507812 694.578125 L 412.246094 696.019531 L 415.007812 697.433594 L 420.609375 700.171875 L 432.101562 705.273438 L 435.03125 706.464844 L 437.984375 707.628906 L 443.957031 709.851562 L 446.972656 710.914062 L 450.011719 711.941406 L 456.148438 713.894531 L 459.242188 714.816406 L 462.359375 715.707031 L 468.644531 717.378906 L 471.8125 718.160156 L 475 718.902344 L 481.417969 720.285156 L 484.589844 720.90625 L 487.773438 721.492188 L 490.972656 722.042969 L 494.183594 722.554688 L 497.40625 723.035156 L 500.644531 723.476562 L 503.894531 723.878906 L 507.152344 724.246094 L 510.425781 724.574219 L 513.707031 724.867188 L 517 725.121094 L 520.300781 725.339844 L 523.613281 725.519531 L 526.929688 725.660156 L 530.257812 725.761719 L 533.59375 725.824219 L 536.9375 725.851562 L 540.285156 725.839844 L 543.640625 725.785156 L 547 725.695312 L 550.367188 725.566406 L 553.738281 725.398438 L 557.109375 725.191406 L 560.488281 724.941406 L 563.871094 724.65625 L 567.253906 724.332031 L 570.640625 723.964844 L 574.027344 723.558594 L 577.414062 723.117188 L 580.800781 722.632812 L 587.578125 721.542969 L 590.964844 720.941406 L 594.351562 720.296875 L 601.113281 718.894531 L 604.488281 718.132812 L 607.863281 717.328125 L 614.597656 715.605469 L 617.957031 714.683594 L 621.308594 713.722656 L 627.996094 711.683594 L 641.277344 707.128906 L 644.574219 705.890625 L 647.859375 704.617188 L 654.40625 701.945312 L 667.347656 696.144531 L 670.550781 694.597656 L 673.742188 693.011719 L 680.074219 689.730469 L 692.554688 682.710938 L 695.890625 680.703125 L 699.207031 678.652344 L 705.773438 674.425781 L 718.625 665.460938 L 721.773438 663.117188 L 724.898438 660.730469 L 731.066406 655.835938 L 743.058594 645.570312 L 745.984375 642.90625 L 748.875 640.207031 L 754.570312 634.691406 L 765.5625 623.21875 L 768.226562 620.261719 L 770.851562 617.269531 L 776.003906 611.183594 L 785.859375 598.617188 L 788.230469 595.394531 L 790.558594 592.140625 L 795.105469 585.546875 L 803.707031 572.003906 L 805.753906 568.546875 L 807.757812 565.066406 L 811.640625 558.023438 L 818.882812 543.644531 L 820.582031 539.988281 L 822.238281 536.316406 L 825.410156 528.898438 L 826.929688 525.160156 L 828.398438 521.402344 L 831.203125 513.828125 L 832.535156 510.015625 L 833.820312 506.183594 L 836.246094 498.472656 L 837.386719 494.59375 L 838.476562 490.699219 L 840.519531 482.867188 L 841.402344 479.199219 L 842.246094 475.515625 L 843.042969 471.824219 L 843.800781 468.125 L 844.515625 464.414062 L 845.183594 460.695312 L 846.394531 453.234375 L 846.933594 449.492188 L 847.433594 445.746094 L 847.882812 441.992188 L 848.292969 438.230469 L 848.660156 434.46875 L 848.980469 430.699219 L 849.257812 426.929688 L 849.492188 423.152344 L 849.679688 419.375 L 849.828125 415.597656 L 849.929688 411.816406 L 849.984375 408.035156 L 850 404.25 L 849.96875 400.46875 L 849.894531 396.6875 L 849.773438 392.90625 L 849.613281 389.128906 L 849.40625 385.351562 L 849.152344 381.578125 L 848.859375 377.808594 L 848.519531 374.042969 L 848.136719 370.28125 L 847.710938 366.523438 L 847.242188 362.773438 L 846.726562 359.027344 L 846.167969 355.289062 L 845.570312 351.558594 L 844.925781 347.832031 L 844.238281 344.117188 L 843.507812 340.410156 L 841.917969 333.027344 L 841.058594 329.347656 L 840.15625 325.683594 L 838.226562 318.382812 L 837.195312 314.753906 L 836.125 311.136719 L 833.859375 303.941406 L 832.664062 300.367188 L 831.429688 296.804688 L 828.832031 289.730469 L 827.476562 286.21875 L 826.074219 282.722656 L 823.15625 275.785156 L 821.640625 272.34375 L 820.082031 268.921875 L 816.847656 262.132812 L 809.921875 248.8125 L 807.941406 245.261719 L 805.917969 241.734375 L 801.742188 234.769531 L 792.882812 221.183594 L 790.5625 217.863281 L 788.207031 214.574219 L 783.371094 208.089844 L 773.242188 195.515625 L 770.617188 192.457031 L 767.957031 189.433594 L 762.527344 183.496094 L 751.253906 172.0625 L 748.351562 169.300781 L 745.421875 166.574219 L 739.460938 161.242188 L 727.1875 151.058594 L 724.046875 148.613281 L 720.878906 146.214844 L 714.46875 141.535156 L 701.339844 132.695312 L 698 130.59375 L 694.636719 128.535156 L 687.847656 124.554688 L 674.035156 117.136719 L 670.535156 115.394531 L 667.015625 113.699219 L 659.9375 110.445312 L 656.371094 108.890625 L 652.792969 107.378906 L 645.597656 104.5 L 641.980469 103.132812 L 638.355469 101.8125 L 631.066406 99.3125 L 627.40625 98.132812 L 623.742188 97 L 616.382812 94.878906 L 612.9375 93.953125 L 609.488281 93.070312 L 602.574219 91.433594 L 599.109375 90.675781 L 595.644531 89.957031 L 588.707031 88.652344 L 585.234375 88.0625 L 581.761719 87.511719 L 578.289062 87.007812 L 574.816406 86.539062 L 571.34375 86.117188 L 567.875 85.734375 L 564.40625 85.394531 L 560.941406 85.09375 L 557.480469 84.835938 L 554.023438 84.617188 L 550.566406 84.441406 L 547.117188 84.308594 L 543.671875 84.214844 L 540.234375 84.160156 L 536.804688 84.148438 L 533.378906 84.179688 L 529.960938 84.246094 L 526.550781 84.355469 L 523.152344 84.503906 L 519.757812 84.695312 L 516.378906 84.921875 L 513.003906 85.191406 L 509.644531 85.5 L 506.292969 85.847656 L 502.957031 86.234375 L 499.628906 86.660156 L 496.316406 87.125 L 493.015625 87.625 L 489.730469 88.167969 L 486.460938 88.746094 L 479.960938 90.015625 L 476.734375 90.707031 L 473.523438 91.4375 L 467.15625 93.003906 L 464 93.84375 L 460.859375 94.714844 L 454.636719 96.570312 L 451.554688 97.550781 L 448.492188 98.566406 L 442.429688 100.699219 L 439.429688 101.820312 L 436.453125 102.96875 L 430.566406 105.371094 L 427.65625 106.621094 L 424.773438 107.902344 L 419.074219 110.5625 L 407.976562 116.25 L 405.320312 117.71875 L 402.6875 119.214844 L 397.503906 122.289062 L 387.460938 128.753906 L 385.019531 130.4375 L 382.605469 132.144531 L 377.863281 135.628906 L 368.734375 142.882812 L 366.527344 144.75 L 364.351562 146.640625 L 360.089844 150.488281 L 351.945312 158.417969 L 349.992188 160.449219 L 348.066406 162.496094 L 344.316406 166.644531 L 337.21875 175.136719 L 335.527344 177.300781 L 333.871094 179.476562 L 330.65625 183.871094 L 329.101562 186.085938 L 327.582031 188.3125 L 324.648438 192.808594 L 323.230469 195.070312 L 321.847656 197.34375 L 319.191406 201.921875 L 314.300781 211.179688 L 313.164062 213.511719 L 312.066406 215.851562 L 309.976562 220.550781 L 308.984375 222.910156 L 308.027344 225.269531 L 306.222656 230.007812 L 305.371094 232.378906 L 304.558594 234.753906 L 303.035156 239.511719 L 302.328125 241.890625 L 301.65625 244.273438 L 300.421875 249.035156 L 299.808594 251.617188 L 299.238281 254.199219 L 298.710938 256.777344 L 298.222656 259.351562 L 297.777344 261.925781 L 297.375 264.496094 L 297.011719 267.058594 L 296.6875 269.617188 L 296.40625 272.171875 L 296.164062 274.71875 L 295.964844 277.257812 L 295.804688 279.789062 L 295.683594 282.3125 L 295.601562 284.828125 L 295.5625 287.335938 L 295.5625 289.828125 L 295.597656 292.316406 L 295.675781 294.789062 L 295.792969 297.253906 L 295.945312 299.703125 L 296.140625 302.140625 L 296.371094 304.566406 L 296.640625 306.976562 L 296.945312 309.371094 L 297.289062 311.753906 L 297.667969 314.117188 L 298.085938 316.46875 L 298.539062 318.800781 L 299.03125 321.117188 L 299.554688 323.414062 L 300.710938 327.953125 L 301.339844 330.195312 L 302.003906 332.417969 L 303.4375 336.800781 L 304.203125 338.960938 L 305 341.097656 L 306.691406 345.308594 L 307.585938 347.378906 L 308.511719 349.425781 L 310.453125 353.445312 L 314.691406 361.183594 L 315.824219 363.054688 L 316.984375 364.898438 L 319.382812 368.5 L 320.621094 370.257812 L 321.886719 371.992188 L 324.488281 375.367188 L 325.828125 377.007812 L 327.191406 378.621094 L 329.984375 381.757812 L 335.832031 387.65625 L 337.242188 388.957031 L 338.671875 390.234375 L 341.578125 392.699219 L 343.054688 393.886719 L 344.542969 395.046875 L 347.570312 397.28125 L 349.105469 398.351562 L 350.652344 399.394531 L 353.785156 401.386719 L 360.1875 405.011719 L 361.816406 405.84375 L 363.453125 406.640625 L 366.75 408.148438 L 368.410156 408.851562 L 370.082031 409.527344 L 373.4375 410.78125 L 375.128906 411.359375 L 376.820312 411.910156 L 378.519531 412.425781 L 380.222656 412.910156 L 381.929688 413.363281 L 383.640625 413.785156 L 385.355469 414.175781 L 387.070312 414.53125 L 388.789062 414.859375 L 390.507812 415.152344 L 392.230469 415.414062 L 393.949219 415.644531 L 395.671875 415.84375 L 397.394531 416.011719 L 399.113281 416.144531 L 400.832031 416.25 L 402.546875 416.320312 L 404.261719 416.359375 L 405.972656 416.367188 L 407.679688 416.34375 L 409.382812 416.289062 L 411.082031 416.203125 L 412.777344 416.085938 L 414.464844 415.9375 L 416.148438 415.757812 L 417.824219 415.546875 L 419.492188 415.304688 L 421.152344 415.03125 L 422.808594 414.730469 L 424.453125 414.394531 L 426.089844 414.03125 L 427.71875 413.636719 L 429.335938 413.210938 L 430.945312 412.757812 L 432.539062 412.273438 L 434.125 411.757812 L 435.699219 411.214844 L 437.261719 410.640625 L 440.347656 409.410156 L 442 408.695312 L 443.632812 407.945312 L 446.847656 406.347656 L 448.429688 405.5 L 449.992188 404.617188 L 453.058594 402.761719 L 454.5625 401.789062 L 456.042969 400.78125 L 458.945312 398.675781 L 464.472656 394.113281 L 465.796875 392.902344 L 467.09375 391.660156 L 469.613281 389.097656 L 470.835938 387.773438 L 472.027344 386.425781 L 474.335938 383.648438 L 475.445312 382.222656 L 476.527344 380.773438 L 478.605469 377.800781 L 479.601562 376.28125 L 480.566406 374.738281 L 482.402344 371.582031 L 483.273438 369.976562 L 484.113281 368.34375 L 485.695312 365.027344 L 486.441406 363.335938 L 487.148438 361.628906 L 488.46875 358.160156 L 489.078125 356.398438 L 489.652344 354.625 L 490.191406 352.832031 L 490.695312 351.023438 L 491.164062 349.199219 L 491.597656 347.363281 L 491.996094 345.511719 L 492.359375 343.644531 L 492.683594 341.769531 L 492.976562 339.878906 L 493.226562 337.980469 L 493.445312 336.066406 L 493.621094 334.148438 L 493.765625 332.214844 L 493.867188 330.273438 L 493.933594 328.328125 L 493.960938 326.371094 L 493.953125 324.40625 L 493.90625 322.4375 L 493.820312 320.460938 L 493.695312 318.476562 L 493.53125 316.492188 L 493.328125 314.5 L 493.089844 312.503906 L 492.816406 310.542969 L 492.503906 308.578125 L 492.152344 306.613281 L 491.765625 304.648438 L 491.34375 302.683594 L 490.878906 300.714844 L 489.84375 296.785156 L 489.265625 294.820312 L 488.652344 292.859375 L 487.3125 288.949219 L 486.585938 287 L 485.820312 285.054688 L 484.179688 281.183594 L 483.300781 279.257812 L 482.386719 277.335938 L 480.441406 273.523438 L 479.414062 271.628906 L 478.351562 269.742188 L 476.109375 266.003906 L 474.933594 264.152344 L 473.722656 262.308594 L 471.1875 258.667969 L 465.6875 251.546875 L 464.226562 249.804688 L 462.726562 248.078125 L 459.621094 244.679688 L 458.019531 243.007812 L 456.382812 241.355469 L 453.003906 238.105469 L 451.265625 236.511719 L 449.492188 234.9375 L 445.851562 231.855469 L 438.179688 225.960938 L 436.1875 224.546875 L 434.160156 223.160156 L 430.015625 220.457031 L 427.898438 219.148438 L 425.753906 217.863281 L 421.378906 215.378906 L 419.148438 214.179688 L 416.890625 213.007812 L 412.292969 210.75 L 402.785156 206.605469 L 400.511719 205.710938 L 398.214844 204.84375 L 393.5625 203.195312 L 391.207031 202.414062 L 388.832031 201.664062 L 384.023438 200.25 L 381.589844 199.585938 L 379.140625 198.957031 L 376.675781 198.355469 L 374.191406 197.785156 L 371.691406 197.246094 L 369.175781 196.738281 L 364.097656 195.820312 L 361.535156 195.410156 L 358.957031 195.03125 L 356.367188 194.6875 L 353.761719 194.375 L 351.144531 194.09375 L 348.515625 193.847656 L 345.875 193.636719 L 343.222656 193.457031 L 340.558594 193.3125 L 337.882812 193.203125 L 335.195312 193.128906 L 332.5 193.089844 L 329.796875 193.082031 L 327.082031 193.113281 L 324.363281 193.175781 L 321.632812 193.277344 L 318.898438 193.410156 L 316.152344 193.582031 L 313.402344 193.789062 L 310.648438 194.03125 L 307.886719 194.308594 L 305.121094 194.625 L 302.351562 194.976562 L 299.578125 195.363281 L 296.800781 195.785156 L 294.019531 196.246094 L 291.238281 196.742188 L 288.453125 197.277344 L 285.667969 197.847656 L 282.878906 198.453125 L 277.308594 199.777344 L 274.519531 200.496094 L 271.738281 201.25 L 266.175781 202.871094 L 263.398438 203.738281 L 260.621094 204.640625 L 255.085938 206.558594 L 252.324219 207.570312 L 249.570312 208.621094 L 244.078125 210.835938 L 233.179688 215.703125 L 230.246094 217.125 L 227.328125 218.589844 L 221.527344 221.648438 L 218.644531 223.242188 L 215.777344 224.875 L 210.085938 228.273438 L 207.265625 230.035156 L 204.457031 231.839844 L 198.898438 235.574219 L 188.007812 243.535156 L 185.335938 245.625 L 182.683594 247.757812 L 177.449219 252.140625 L 167.269531 261.378906 L 164.785156 263.785156 L 162.328125 266.226562 L 157.496094 271.226562 L 148.175781 281.664062 L 145.921875 284.363281 L 143.695312 287.097656 L 139.34375 292.671875 L 131.03125 304.214844 L 129.035156 307.183594 L 127.078125 310.183594 L 123.269531 316.273438 L 116.09375 328.816406 L 114.398438 332.027344 L 112.738281 335.261719 L 109.535156 341.8125 L 107.996094 345.128906 L 106.496094 348.472656 L 103.621094 355.230469 L 102.242188 358.644531 L 100.910156 362.085938 L 98.371094 369.03125 L 97.167969 372.539062 L 96.007812 376.066406 L 93.816406 383.179688 L 92.855469 386.53125 L 91.933594 389.894531 L 90.207031 396.675781 L 89.40625 400.085938 L 88.640625 403.511719 L 87.238281 410.410156 L 86.597656 413.875 L 85.996094 417.355469 L 85.4375 420.847656 L 84.921875 424.351562 L 84.445312 427.863281 L 84.011719 431.390625 L 83.621094 434.925781 L 83.269531 438.46875 L 82.960938 442.019531 L 82.695312 445.582031 L 82.472656 449.152344 L 82.292969 452.726562 L 82.15625 456.308594 L 82.0625 459.898438 L 82.011719 463.492188 L 82 467.09375 L 82.035156 470.699219 L 82.113281 474.304688 L 82.234375 477.917969 L 82.402344 481.53125 L 82.609375 485.148438 L 82.863281 488.769531 L 83.15625 492.390625 L 83.496094 496.007812 L 83.878906 499.628906 L 84.304688 503.25 L 84.777344 506.871094 L 85.289062 510.488281 L 85.847656 514.105469 L 86.449219 517.71875 L 87.785156 524.933594 L 88.519531 528.539062 L 89.296875 532.136719 L 90.980469 539.3125 L 91.886719 542.894531 L 92.835938 546.464844 L 94.871094 553.585938 L 95.949219 557.136719 L 97.074219 560.675781 L 99.449219 567.722656 L 100.703125 571.230469 L 102 574.726562 L 104.714844 581.683594 L 106.140625 585.140625 L 107.601562 588.585938 L 110.65625 595.4375 L 117.265625 608.945312 L 118.984375 612.214844 L 120.742188 615.46875 L 124.375 621.921875 L 132.101562 634.601562 L 134.125 637.71875 L 136.1875 640.820312 L 140.425781 646.953125 L 149.328125 658.949219 L 151.644531 661.890625 L 153.996094 664.804688 L 158.800781 670.558594 L 168.8125 681.757812 L 171.398438 684.492188 L 174.015625 687.195312 L 179.347656 692.519531 L 190.382812 702.816406 L 193.21875 705.3125 L 196.082031 707.78125 L 201.894531 712.621094 L 213.859375 721.917969 L 216.914062 724.160156 L 220 726.367188 L 226.246094 730.679688 L 239.027344 738.886719 L 242.28125 740.851562 L 245.558594 742.777344 L 252.179688 746.523438 L 265.667969 753.570312 L 269.089844 755.238281 L 272.527344 756.867188 L 279.460938 760.011719 L 293.535156 765.835938 L 297.394531 767.304688 L 301.273438 768.730469 L 309.078125 771.4375 L 313.003906 772.71875 L 316.945312 773.953125 L 324.867188 776.28125 L 328.847656 777.371094 L 332.839844 778.414062 L 340.859375 780.355469 L 344.882812 781.253906 L 348.917969 782.101562 L 357.007812 783.652344 L 361.066406 784.351562 L 365.132812 785.003906 L 369.203125 785.609375 L 373.277344 786.164062 L 377.355469 786.667969 L 381.441406 787.121094 L 385.527344 787.527344 L 389.617188 787.886719 L 393.710938 788.191406 L 397.800781 788.449219 L 401.894531 788.660156 L 405.988281 788.816406 L 410.078125 788.925781 L 414.167969 788.988281 L 418.257812 789 L 422.339844 788.960938 L 426.421875 788.871094 L 430.5 788.738281 L 434.570312 788.550781 L 438.636719 788.316406 L 442.695312 788.03125 L 446.75 787.699219 L 450.792969 787.320312 L 454.828125 786.890625 L 458.855469 786.414062 L 462.875 785.886719 L 466.878906 785.316406 L 470.875 784.691406 L 474.859375 784.023438 L 478.832031 783.308594 L 486.734375 781.734375 L 490.664062 780.875 L 494.582031 779.96875 L 502.363281 778.023438 L 506.230469 776.980469 L 510.078125 775.890625 L 517.722656 773.578125 L 521.515625 772.355469 L 525.285156 771.085938 L 532.769531 768.417969 L 547.46875 762.558594 L 550.84375 761.089844 L 554.195312 759.589844 L 560.835938 756.480469 L 573.835938 749.832031 L 577.023438 748.082031 L 580.1875 746.300781 L 586.441406 742.636719 L 598.625 734.914062 L 601.601562 732.902344 L 604.550781 730.863281 L 610.359375 726.6875 L 621.625 717.984375 L 624.363281 715.738281 L 627.074219 713.460938 L 632.394531 708.828125 L 642.648438 699.25 L 645.128906 696.789062 L 647.574219 694.308594 L 652.363281 689.269531 L 661.527344 678.925781 L 663.726562 676.285156 L 665.894531 673.621094 L 670.117188 668.242188 L 678.117188 657.25 L 680.027344 654.457031 L 681.894531 651.648438 L 685.523438 645.984375 L 692.316406 634.472656 L 693.917969 631.5625 L 695.480469 628.636719 L 698.488281 622.753906 L 704.03125 610.855469 L 705.464844 607.507812 L 706.847656 604.148438 L 709.46875 597.402344 L 710.703125 594.015625 L 711.886719 590.625 L 714.109375 583.816406 L 715.144531 580.40625 L 716.128906 576.988281 L 717.066406 573.570312 L 717.949219 570.144531 L 718.785156 566.71875 L 719.570312 563.292969 L 720.992188 556.433594 L 721.628906 553.003906 L 722.21875 549.578125 L 722.753906 546.152344 L 723.242188 542.730469 L 723.679688 539.308594 L 724.070312 535.894531 L 724.410156 532.480469 L 724.699219 529.078125 L 724.941406 525.675781 L 725.136719 522.285156 L 725.28125 518.898438 L 725.378906 515.523438 L 725.425781 512.15625 L 725.425781 508.796875 L 725.378906 505.449219 L 725.285156 502.113281 L 725.144531 498.785156 L 724.957031 495.472656 L 724.722656 492.171875 L 724.441406 488.886719 L 724.113281 485.617188 L 723.738281 482.359375 L 723.320312 479.117188 L 722.855469 475.894531 L 722.347656 472.6875 L 721.792969 469.496094 L 721.195312 466.324219 L 720.554688 463.171875 L 719.871094 460.039062 L 719.140625 456.925781 L 717.558594 450.761719 L 716.703125 447.714844 L 715.804688 444.6875 L 713.890625 438.703125 L 712.871094 435.75 L 711.8125 432.820312 L 709.578125 427.035156 L 708.402344 424.183594 L 707.1875 421.355469 L 704.652344 415.789062 L 703.328125 413.046875 L 701.964844 410.335938 L 700.570312 407.652344 L 699.140625 405 " transform="matrix(1,0,0,1,-66,-5)"/>
</g>
</svg>
