<svg version="1" xmlns="http://www.w3.org/2000/svg" width="1365.333" height="1365.333" viewBox="0 0 1024.000000 1024.000000"><path d="M.2 85.2l.3 85.3 83.5.2c45.9.1 84.2.2 85.1.2 1.4.1 1.5 4.7 1.6 42.6V256H0v42.5c0 33.3.3 42.5 1.3 42.6.6 0 49.1.2 107.7.3 58.6.2 106.6.3 106.8.4.2.1-.5 1.7-1.6 3.4-10.1 16.5-25.7 54.5-31.8 77.8l-1 3.5-89.9.2c-49.5 0-90.3.2-90.7.2-.5.1-.8 19.2-.8 42.6V512h170.7l.3 9.2c.2 13 1.4 28.9 2.5 34.8.1.8.6 4 1 7 .9 6.5.6 5.2 3.9 20.9 1.4 7 2.2 12.7 1.7 13-.5.4-41.2.6-90.5.5L0 597.3l.2 42.6.3 42.6 106 .2c58.3 0 106.9.2 108 .2 1.4.1 3.5 2.6 7 8.3 6.7 11.1 18.6 27.6 27.4 38.1l7.1 8.6V768H0v256h170.7l.1-82.3c0-45.2.1-83.6.1-85.3l.1-3 42.5-.1H256V1024h42.5c23.4 0 42.5-.3 42.6-.8 0-.4.1-49 .2-108 0-58.9.3-107.2.6-107.2s2.1.9 4 2.1c1.9 1.1 7.5 4.1 12.5 6.6 5 2.4 10.3 5.1 11.7 5.9 5.7 3 31.1 12.5 43.4 16.2l13 3.9V1024H512V853.2l10.3-.1c5.6-.1 12-.4 14.2-.6 2.2-.3 6.7-.7 10-1 11.7-1 26.2-3.3 40.9-6.6 4.9-1.1 9.1-1.7 9.4-1.4.3.3.6 40.9.6 90.2l.1 89.8 42.6.3 42.5.2V917c-.1-58.9.1-107.8.4-108.6.3-.8 1.5-2 2.7-2.7 12.8-7.2 30.7-19.8 44-30.9l8.2-6.8H768v256h256V853.3l-83.2-.1c-45.8 0-84.2-.1-85.4-.1-2.1-.1-2.1-.2-2-42.3l.1-42.3 85.3-.3 85.2-.2v-85.5l-107.5.1c-59.2 0-107.7-.2-107.9-.5-.2-.3 2-4.9 4.8-10.1 10.8-20 18.7-39.2 25.4-61.7l3.9-12.8 89.9-.2c49.4 0 90.2-.2 90.7-.2.4-.1.7-19.2.7-42.6V512l-170.7.2-170.7.3-.2 6c-1.1 34.9-13.5 69.2-35.3 97.5-28.6 37.2-71.6 61.2-118.1 65.7-40 3.9-78.5-5.8-112-28.2-6-4-11.6-7.9-12.3-8.7-.7-.7-4-3.6-7.2-6.3-23.7-20.4-45.7-58-52-88.9-4.4-21.6-5.3-46.8-2.1-64.1 2.2-12.2 2-11.6 5.1-21.9 6.4-21.8 17.8-43.4 31.8-60.1 6.9-8.2 19.8-20.8 26.6-25.8 3.1-2.3 5.8-4.5 6.1-4.8 1.7-1.9 22.2-13.6 29.7-16.8 12.7-5.5 27.1-10.1 37.2-11.7 1.8-.3 4.3-.7 5.4-.9 5.5-1.1 17.4-1.9 27.7-1.8 16.3 0 25.7 1.2 40 4.8 20.6 5.2 40.2 14 55.9 25 5.3 3.7 17 13.1 19.1 15.4 4.6 4.9 3.1 6 29.4-20.3 13.5-13.5 24.7-24.6 24.9-24.6.2 0 .3 19 .3 42.2v42.3h340.9l.3-42.6.2-42.5-126.7.1c-69.8 0-127.4-.1-128-.3-1-.3-1.3-9.8-1.3-42.8V256h256V0l-85.2.2-85.3.3-.2 83c-.1 45.6-.2 83.9-.2 85.1-.1 2.1-.2 2.1-42.6 2.1l-42.5-.1V0h-42.5c-39.8 0-42.5.1-42.6 1.7 0 1-.2 49.3-.3 107.3-.2 58-.4 105.9-.4 106.3-.1.5-1.7 0-3.4-1.1-1.8-1.1-6.9-3.8-11.3-6-22.9-11.5-37.3-17-67.5-26.1l-2.5-.8-.1-90.4V.5L554.7.2 512 0v170.6l-8.9.3c-12 .3-30.6 1.7-35.6 2.7-1.1.2-4.2.6-7 .9-2.7.3-5.7.8-6.5 1-.8.2-3.1.7-5 1-1.9.3-7.4 1.5-12.2 2.6-4.8 1-9.1 1.9-9.5 1.9-.5 0-.8-40.7-.7-90.5l.1-90.5H341.4v106.2c.1 58.5-.1 107.2-.2 108.4-.2 1.1-1.8 2.9-3.5 3.9-12.3 7.1-34.8 23.1-45.8 32.6l-5.7 4.9H256V0H0l.2 85.2z"/><path d="M427.7 427.2c-.9.5-1.2 21.1-1.1 84.7 0 46.2.4 84.4.7 84.8 1.2 1.1 169.6 1 170-.2.3-.8.1-161.2-.2-168-.1-2-.8-2-84.2-2-46.2 0-84.6.3-85.2.7z"/></svg>