<?xml version="1.0" encoding="UTF-8"?>
<svg id="SVGRoot" shape-rendering="crispEdges" version="1.1" viewBox="0 0 96 96" xmlns="http://www.w3.org/2000/svg" xmlns:cc="http://creativecommons.org/ns#" xmlns:dc="http://purl.org/dc/elements/1.1/" xmlns:rdf="http://www.w3.org/1999/02/22-rdf-syntax-ns#">
 <defs>
  <filter id="filter875" x="-3.2241e-20" y="-3.2241e-20" width="1" height="1" color-interpolation-filters="sRGB">
   <feGaussianBlur stdDeviation="3.3584246e-19"/>
  </filter>
 </defs>
 <metadata>
  <rdf:RDF>
   <cc:Work rdf:about="">
    <dc:format>image/svg+xml</dc:format>
    <dc:type rdf:resource="http://purl.org/dc/dcmitype/StillImage"/>
    <dc:title/>
   </cc:Work>
  </rdf:RDF>
 </metadata>
 <g>
  <rect transform="scale(4)" width="24" height="24" display="none" fill="#fff" filter="url(#filter875)"/>
  <rect x="16" y="16" width="64" height="64" fill-opacity="0" stroke="#000" stroke-dasharray="8, 8" stroke-width="32"/>
  <path d="m48 16a32 32 0 0 0-32 32 32 32 0 0 0 32 32 32 32 0 0 0 32-32h-16a16 16 0 0 1-16 16 16 16 0 0 1-16-16 16 16 0 0 1 16-16 16 16 0 0 1 11.312 4.6875l11.312-11.312a32 32 0 0 0-22.625-9.375zm22.625 9.375a32 32 0 0 1 0.57812 0.59375 32 32 0 0 0-0.57812-0.59375zm2.0625 2.2656a32 32 0 0 1 0.46094 0.57812 32 32 0 0 0-0.46094-0.57812zm0.46094 0.57812a32 32 0 0 1 0.57813 0.75781 32 32 0 0 0-0.57813-0.75781zm0.57813 0.75781a32 32 0 0 1 0.54687 0.76563 32 32 0 0 0-0.54687-0.76563zm0.5625 0.78125a32 32 0 0 1 0.48437 0.72656 32 32 0 0 0-0.48437-0.72656zm1.0312 1.5859a32 32 0 0 1 0.48438 0.82031 32 32 0 0 0-0.48438-0.82031zm0.48438 0.82031a32 32 0 0 1 0.3828 0.6875 32 32 0 0 0-0.3828-0.6875zm0.92188 1.75a32 32 0 0 1 0.375 0.78906 32 32 0 0 0-0.375-0.78906zm0.375 0.78906a32 32 0 0 1 0.32032 0.72656 32 32 0 0 0-0.32032-0.72656zm1.4219 3.7188a32 32 0 0 1 0.22656 0.73438 32 32 0 0 0-0.22656-0.73438zm0.22656 0.73438a32 32 0 0 1 0.25 0.92187 32 32 0 0 0-0.25-0.92187zm0.70312 2.9688a32 32 0 0 1 0.125 0.70312 32 32 0 0 0-0.125-0.70312zm0.14064 0.8125a32 32 0 0 1 0.10156 0.66406 32 32 0 0 0-0.10156-0.66406zm0.32812 2.8828a32 32 0 0 1 0.04688 0.82812 32 32 0 0 0-0.04688-0.82812zm0.04688 0.82812a32 32 0 0 1 0.0236 0.78125 32 32 0 0 0-0.0236-0.78125z" stroke-width="4"/>
  <rect x="40" y="40" width="16" height="16" fill="#59f" stroke-width="8"/>
  <rect x="48" y="48" width="8" height="8" stroke-width="8"/>
 </g>
</svg>
