<?xml version="1.0" standalone="no"?>
<!DOCTYPE svg PUBLIC "-//W3C//DTD SVG 20010904//EN"
 "http://www.w3.org/TR/2001/REC-SVG-20010904/DTD/svg10.dtd">
<svg version="1.0" xmlns="http://www.w3.org/2000/svg"
 width="1024.000000pt" height="1024.000000pt" viewBox="0 0 1024.000000 1024.000000"
 preserveAspectRatio="xMidYMid meet">
<metadata>
Created by potrace 1.11, written by Peter Selinger 2001-2013
</metadata>
<g transform="translate(0.000000,1024.000000) scale(0.100000,-0.100000)"
fill="#000000" stroke="none">
<path d="M2 9388 l3 -853 835 -2 c459 -1 842 -2 851 -2 14 -1 15 -47 16 -426
l0 -425 -854 0 -853 0 0 -425 c0 -333 3 -425 13 -426 6 0 491 -2 1077 -3 586
-2 1066 -3 1068 -4 2 -1 -5 -17 -16 -34 -101 -165 -257 -545 -318 -778 l-10
-35 -899 -2 c-495 0 -903 -2 -907 -2 -5 -1 -8 -192 -8 -426 l0 -425 854 0 853
0 3 -92 c2 -130 14 -289 25 -348 1 -8 6 -40 10 -70 9 -65 6 -52 39 -209 14
-70 22 -127 17 -130 -5 -4 -412 -6 -905 -5 l-896 1 2 -426 3 -426 1060 -2
c583 0 1069 -2 1080 -2 14 -1 35 -26 70 -83 67 -111 186 -276 274 -381 l71
-86 0 -150 0 -151 -1280 0 -1280 0 0 -1280 0 -1280 853 0 854 0 1 823 c0 452
1 836 1 853 l1 30 425 1 425 0 0 -854 0 -853 425 0 c234 0 425 3 426 8 0 4 1
490 2 1080 0 589 3 1072 6 1072 3 0 21 -9 40 -21 19 -11 75 -41 125 -66 50
-24 103 -51 117 -59 57 -30 311 -125 434 -162 l130 -39 0 -906 0 -907 428 0
427 0 0 854 0 854 103 1 c56 1 120 4 142 6 22 3 67 7 100 10 117 10 262 33
409 66 49 11 91 17 94 14 3 -3 6 -409 6 -902 l1 -898 426 -3 425 -2 0 1070
c-1 589 1 1078 4 1086 3 8 15 20 27 27 128 72 307 198 440 309 l82 68 150 0
151 0 0 -1280 0 -1280 1280 0 1280 0 0 853 0 854 -832 1 c-458 0 -842 1 -854
1 -21 1 -21 2 -20 423 l1 423 853 3 852 2 0 428 0 427 -1075 -1 c-592 0 -1077
2 -1079 5 -2 3 20 49 48 101 108 200 187 392 254 617 l39 128 899 2 c494 0
902 2 907 2 4 1 7 192 7 426 l0 425 -1707 -2 -1707 -3 -2 -60 c-11 -349 -135
-692 -353 -975 -286 -372 -716 -612 -1181 -657 -400 -39 -785 58 -1120 282
-60 40 -116 79 -123 87 -7 7 -40 36 -72 63 -237 204 -457 580 -520 889 -44
216 -53 468 -21 641 22 122 20 116 51 219 64 218 178 434 318 601 69 82 198
208 266 258 31 23 58 45 61 48 17 19 222 136 297 168 127 55 271 101 372 117
18 3 43 7 54 9 55 11 174 19 277 18 163 0 257 -12 400 -48 206 -52 402 -140
559 -250 53 -37 170 -131 191 -154 46 -49 31 -60 294 203 135 135 247 246 249
246 2 0 3 -190 3 -422 l0 -423 1705 0 1704 0 3 426 2 425 -1267 -1 c-698 0
-1274 1 -1280 3 -10 3 -13 98 -13 428 l0 424 1280 0 1280 0 0 1280 0 1280
-852 -2 -853 -3 -2 -830 c-1 -456 -2 -839 -2 -851 -1 -21 -2 -21 -426 -21
l-425 1 0 853 0 853 -425 0 c-398 0 -425 -1 -426 -17 0 -10 -2 -493 -3 -1073
-2 -580 -4 -1059 -4 -1063 -1 -5 -17 0 -34 11 -18 11 -69 38 -113 60 -229 115
-373 170 -675 261 l-25 8 -1 904 0 904 -427 3 -427 2 0 -853 0 -853 -89 -3
c-120 -3 -306 -17 -356 -27 -11 -2 -42 -6 -70 -9 -27 -3 -57 -8 -65 -10 -8 -2
-31 -7 -50 -10 -19 -3 -74 -15 -122 -26 -48 -10 -91 -19 -95 -19 -5 0 -8 407
-7 905 l1 905 -427 0 -426 0 0 -1062 c1 -585 -1 -1072 -2 -1084 -2 -11 -18
-29 -35 -39 -123 -71 -348 -231 -458 -326 l-57 -49 -151 0 -151 0 0 1280 0
1280 -1280 0 -1280 0 2 -852z"/>
<path d="M4277 5968 c-9 -5 -12 -211 -11 -847 0 -462 4 -844 7 -848 12 -11
1696 -10 1700 2 3 8 1 1612 -2 1680 -1 20 -8 20 -842 20 -462 0 -846 -3 -852
-7z"/>
</g>
</svg>
