<?xml version="1.0" standalone="no"?>
<!DOCTYPE svg PUBLIC "-//W3C//DTD SVG 20010904//EN"
 "http://www.w3.org/TR/2001/REC-SVG-20010904/DTD/svg10.dtd">
<svg version="1.0" xmlns="http://www.w3.org/2000/svg"
 width="1024.000000pt" height="1024.000000pt" viewBox="0 0 1024.000000 1024.000000"
 preserveAspectRatio="xMidYMid meet">
<metadata>
Created by potrace 1.11, written by Peter Selinger 2001-2013
</metadata>
<g transform="translate(0.000000,1024.000000) scale(0.100000,-0.100000)"
fill="#000000" stroke="none">
<path d="M3739 8196 c-2 -2 -38 -7 -79 -10 -41 -4 -84 -9 -95 -11 -11 -2 -38
-7 -60 -10 -173 -23 -400 -85 -584 -161 -642 -266 -1062 -795 -1117 -1409 -5
-65 -5 -245 1 -315 24 -266 123 -536 276 -752 114 -161 326 -344 526 -456 75
-42 284 -129 335 -139 15 -3 28 -8 28 -12 0 -3 -51 -26 -113 -50 -562 -219
-880 -528 -933 -909 -6 -44 -5 -174 1 -217 38 -253 191 -452 451 -585 124 -64
336 -124 461 -132 23 -2 39 -6 35 -9 -4 -4 -50 -16 -102 -29 -86 -20 -287 -83
-399 -125 -24 -8 -93 -40 -154 -71 -279 -138 -460 -302 -562 -506 -115 -233
-108 -518 22 -773 65 -128 159 -244 288 -352 256 -216 716 -397 1190 -467 55
-8 110 -16 150 -20 37 -5 61 -7 193 -21 215 -22 763 -23 902 -1 14 3 54 7 90
10 36 4 135 18 220 32 662 110 1205 386 1541 784 64 76 157 220 201 310 40 83
104 267 113 328 3 21 7 48 9 59 18 90 23 271 11 378 -32 286 -137 509 -329
700 -224 221 -535 364 -936 429 -89 14 -125 19 -260 32 -30 3 -415 7 -855 9
-440 1 -827 6 -860 9 -338 38 -524 157 -579 368 -18 72 -13 186 13 260 34 97
83 162 193 254 55 46 188 116 306 160 70 27 88 29 147 20 233 -35 398 -50 560
-49 94 0 305 12 314 17 3 2 29 6 56 10 146 17 402 83 555 143 105 41 295 138
387 198 451 295 716 714 768 1215 6 63 6 268 0 320 -2 19 -7 55 -11 80 -3 25
-6 46 -6 47 1 2 -4 17 -9 35 -5 18 -12 47 -15 63 -21 119 -128 355 -219 485
-59 84 -170 203 -218 235 -32 21 -22 32 25 29 38 -3 281 -15 383 -19 108 -5
331 -15 420 -20 44 -2 147 -7 230 -10 82 -4 152 -7 155 -7 28 -2 29 7 29 262
l0 261 -107 -6 c-59 -3 -143 -7 -187 -10 -44 -3 -129 -7 -190 -10 -60 -3 -144
-7 -185 -9 -41 -3 -136 -8 -210 -11 -74 -4 -155 -8 -180 -10 -25 -1 -110 -6
-190 -10 -80 -3 -167 -8 -195 -10 -55 -4 -318 -18 -350 -18 -11 0 -61 16 -111
36 -88 36 -304 99 -374 110 -19 3 -46 8 -59 11 -14 3 -59 10 -100 16 -42 5
-92 12 -111 15 -39 7 -535 16 -541 11z m361 -477 c19 -4 62 -13 95 -19 424
-86 728 -398 834 -860 11 -47 23 -112 26 -145 4 -33 9 -69 11 -80 6 -29 6
-300 0 -327 -3 -13 -7 -41 -10 -63 -32 -260 -155 -514 -336 -696 -207 -208
-459 -313 -747 -311 -520 2 -925 287 -1087 765 -20 56 -38 116 -40 132 -3 17
-8 41 -11 55 -21 91 -31 214 -30 346 3 237 40 409 128 594 109 232 279 408
496 515 76 38 213 81 289 91 26 3 49 8 51 10 7 7 295 1 331 -7z m785 -4822
c22 -4 55 -9 73 -12 406 -61 653 -241 734 -535 28 -103 20 -310 -16 -413 -98
-283 -343 -501 -716 -635 -82 -29 -209 -66 -260 -76 -14 -2 -45 -9 -70 -15
-75 -17 -258 -40 -380 -47 -613 -39 -1138 73 -1451 308 -165 124 -265 269
-311 451 -29 116 -22 295 17 416 64 199 206 356 423 465 60 30 218 84 272 92
19 3 37 8 40 11 7 7 1600 -3 1645 -10z"/>
<path d="M8088 4375 c-2 -1 -28 -5 -58 -8 -61 -7 -143 -33 -210 -67 -216 -110
-355 -332 -364 -581 -9 -226 85 -428 264 -570 124 -98 263 -144 425 -141 397
9 704 375 651 777 -43 324 -312 574 -637 589 -37 2 -69 3 -71 1z"/>
</g>
</svg>
