<?xml version="1.0" standalone="no"?>
<!DOCTYPE svg PUBLIC "-//W3C//DTD SVG 20010904//EN"
 "http://www.w3.org/TR/2001/REC-SVG-20010904/DTD/svg10.dtd">
<svg version="1.0" xmlns="http://www.w3.org/2000/svg"
 width="1024.000000pt" height="1024.000000pt" viewBox="0 0 1024.000000 1024.000000"
 preserveAspectRatio="xMidYMid meet">
<metadata>
Created by potrace 1.11, written by Peter Selinger 2001-2013
</metadata>
<g transform="translate(0.000000,1024.000000) scale(0.100000,-0.100000)"
fill="#000000" stroke="none">
<path d="M4865 8524 c-741 -72 -1335 -308 -1890 -750 -141 -113 -396 -368
-509 -509 -499 -626 -756 -1355 -756 -2145 0 -789 258 -1520 756 -2145 113
-141 368 -396 509 -509 507 -404 1058 -639 1716 -733 176 -25 681 -25 859 0
391 55 716 153 1055 316 960 464 1646 1348 1860 2396 74 361 85 806 29 1185
-142 973 -728 1862 -1576 2391 -150 94 -440 236 -610 299 -234 86 -491 150
-753 185 -114 16 -589 29 -690 19z m460 -425 c330 -24 611 -88 899 -203 385
-155 712 -371 1006 -666 447 -446 730 -994 835 -1614 142 -838 -80 -1691 -616
-2366 -106 -133 -323 -351 -459 -460 -297 -238 -661 -427 -1027 -536 -859
-254 -1791 -105 -2533 404 -225 155 -472 383 -637 588 -572 716 -787 1641
-587 2533 53 235 122 429 239 666 318 647 877 1168 1544 1440 429 174 888 248
1336 214z"/>
<path d="M4891 7670 c-498 -48 -971 -238 -1364 -547 -107 -83 -362 -344 -444
-453 -485 -649 -641 -1458 -428 -2233 137 -500 432 -954 840 -1292 771 -638
1860 -764 2754 -319 259 129 438 254 639 449 227 218 386 436 522 710 160 324
236 605 262 972 39 542 -114 1118 -418 1573 -407 609 -1041 1014 -1757 1121
-153 23 -464 32 -606 19z m433 -850 c508 -49 889 -296 1081 -703 43 -89 89
-231 96 -292 l4 -30 -201 -3 -200 -2 -33 85 c-119 304 -357 502 -673 559 -180
32 -334 30 -496 -9 -101 -25 -275 -114 -360 -185 -295 -247 -449 -709 -412
-1237 54 -757 456 -1185 1090 -1160 415 17 725 224 851 567 33 93 59 240 59
343 l0 67 -450 0 -450 0 0 180 0 180 651 0 651 0 -5 -297 c-4 -254 -8 -313
-27 -398 -102 -474 -387 -796 -830 -940 -179 -57 -267 -69 -510 -69 -232 0
-318 13 -486 69 -465 156 -796 557 -912 1105 -37 172 -46 279 -46 505 0 244
14 367 65 564 193 749 787 1172 1543 1101z"/>
</g>
</svg>
