<?xml version="1.0" standalone="no"?>
<!DOCTYPE svg PUBLIC "-//W3C//DTD SVG 20010904//EN"
 "http://www.w3.org/TR/2001/REC-SVG-20010904/DTD/svg10.dtd">
<svg version="1.0" xmlns="http://www.w3.org/2000/svg"
 width="700.000000pt" height="700.000000pt" viewBox="0 0 700.000000 700.000000"
 preserveAspectRatio="xMidYMid meet">
<metadata>
Created by potrace 1.11, written by Peter Selinger 2001-2013
</metadata>
<g transform="translate(0.000000,700.000000) scale(0.100000,-0.100000)"
fill="#000000" stroke="none">
<path d="M0 6417 l0 -584 583 0 582 1 1 -292 1 -292 -584 0 -583 0 2 -292 3
-291 732 0 c403 0 733 -3 733 -6 0 -3 -29 -64 -64 -134 -36 -71 -88 -199 -116
-285 l-53 -158 -616 0 -616 0 -3 -292 -2 -292 584 0 584 0 1 -72 c3 -135 16
-249 46 -393 12 -60 21 -112 20 -115 -2 -3 -280 -5 -619 -4 l-616 1 0 -292 0
-291 738 0 737 1 58 -89 c64 -98 132 -190 184 -249 33 -37 33 -37 33 -142 l0
-105 -875 0 -875 0 0 -875 0 -875 583 0 584 0 -1 570 c-1 314 1 576 4 583 4
10 70 13 293 13 l287 0 0 -583 0 -583 290 0 c160 0 290 3 291 8 0 4 1 334 2
735 0 400 3 727 6 727 3 0 59 -27 126 -59 120 -59 291 -126 395 -155 l56 -15
0 -618 0 -618 292 -3 292 -2 0 584 0 584 96 1 c54 1 100 3 103 5 3 2 42 7 86
11 44 4 83 9 86 11 4 2 24 6 45 10 22 3 66 12 99 19 32 8 61 12 64 9 3 -2 5
-280 5 -617 l1 -612 291 -3 290 -2 -1 727 c0 401 1 734 3 740 2 7 47 41 101
76 53 35 136 96 185 135 l90 72 103 0 103 0 0 -875 0 -875 875 0 875 0 0 583
0 583 -576 0 c-317 -1 -579 1 -583 4 -4 3 -7 133 -7 290 l1 285 583 3 582 2
-2 292 -3 291 -737 0 -736 0 37 71 c72 134 156 344 190 472 l11 40 617 0 618
0 3 292 2 292 -1169 0 c-1109 0 -1170 -1 -1167 -17 2 -10 -1 -56 -5 -103 -28
-281 -154 -535 -366 -733 -408 -383 -1039 -417 -1488 -82 -340 254 -513 663
-461 1086 41 332 241 648 526 831 409 261 932 243 1325 -47 39 -28 76 -59 84
-69 39 -47 41 -46 219 132 l168 168 0 -284 c-1 -156 1 -287 4 -291 3 -4 528
-8 1168 -8 l1162 1 0 291 0 291 -875 0 -875 -1 0 293 0 292 875 0 875 0 0 875
0 875 -583 0 -583 0 0 -570 c1 -314 -1 -576 -4 -584 -4 -9 -69 -12 -292 -12
l-288 -1 0 584 0 583 -292 -2 -292 -3 0 -732 c0 -403 -3 -733 -8 -733 -4 0
-42 18 -85 41 -97 52 -262 119 -378 154 -49 16 -94 32 -100 37 -6 6 -10 226
-11 621 l0 612 -292 3 -292 2 0 -584 0 -583 -72 -2 c-100 -2 -163 -8 -358 -37
-19 -3 -60 -12 -90 -19 -30 -8 -57 -10 -60 -6 -3 5 -5 284 -4 620 l0 611 -290
-2 -291 -3 -1 -734 c0 -716 -1 -734 -20 -748 -10 -8 -57 -39 -104 -70 -47 -31
-123 -87 -170 -124 l-85 -69 -102 0 -103 0 0 875 0 875 -875 0 -875 0 0 -583z"/>
<path d="M2927 4078 c-8 -5 -11 -173 -12 -582 0 -503 2 -575 15 -578 8 -2 272
-3 585 -3 l570 0 0 582 c0 381 -3 583 -10 584 -50 5 -1140 2 -1148 -3z"/>
</g>
</svg>
